<svg width="350" height="359" viewBox="0 0 350 359" fill="none" xmlns="http://www.w3.org/2000/svg">
<g clip-path="url(#clip0_18_76)">
<path d="M20.5981 66.9742L20.5981 35.5786C20.5981 22.285 31.3462 11.537 44.5691 11.6077L319.421 11.537C332.715 11.537 343.463 22.285 343.392 35.5079V310.431C343.392 323.725 332.644 334.473 319.421 334.402L288.026 334.402C274.591 334.402 263.772 323.3 264.055 309.865L268.086 143.483L64.863 346.706C55.4585 356.11 40.3264 356.11 30.9219 346.706L8.29448 324.078C-1.11004 314.674 -1.11004 299.542 8.29448 290.137L211.517 86.9146L45.1347 90.9451C31.629 91.2986 20.5274 80.4799 20.5981 66.9742Z" fill="#050505"/>
</g>
<defs>
<clipPath id="clip0_18_76">
<rect width="350" height="359" fill="white"/>
</clipPath>
</defs>
</svg>
