<svg width="1185" height="549" viewBox="0 0 1185 549" fill="none" xmlns="http://www.w3.org/2000/svg">
<g clip-path="url(#clip0_416_567)">
<path d="M1159.43 520.657C1161.25 535.694 1149.52 548.939 1134.37 548.939H33.6332C18.4868 548.939 6.75006 535.694 8.5727 520.657C87.5022 -130.443 1080.49 -130.443 1159.43 520.657Z" fill="black" stroke="black" stroke-width="10"/>
<path d="M67.8492 473.596C65.1221 485.756 74.5161 497.319 86.9778 497.319H1081.01C1093.48 497.319 1102.87 485.756 1100.14 473.596C982.662 -50.1978 185.325 -50.1978 67.8492 473.596Z" fill="#F9AA3B"/>
<path d="M211.04 358C222.11 358 231.081 366.97 231.081 378.039C231.081 389.108 222.11 398.078 211.04 398.078C199.97 398.078 191 389.108 191 378.039C191 366.97 199.97 358 211.04 358Z" fill="#F46F16"/>
<path d="M564.04 161C575.11 161 584.08 169.964 584.08 181.035C584.08 192.106 575.11 201.083 564.04 201.083C552.971 201.083 544 192.106 544 181.035C544 169.964 552.971 161 564.04 161Z" fill="#F46F16"/>
<path d="M384.04 209C395.11 209 404.08 217.964 404.08 229.035C404.08 240.106 395.11 249.083 384.04 249.083C372.971 249.083 364 240.106 364 229.035C364 217.964 372.971 209 384.04 209Z" fill="#F46F16"/>
<path d="M435.04 358C446.112 358 455.079 366.967 455.079 378.04C455.079 389.112 446.112 398.079 435.04 398.079C423.979 398.079 415 389.112 415 378.04C415 366.967 423.979 358 435.04 358Z" fill="#F46F16"/>
<path d="M659.041 358C670.117 358 679.082 366.966 679.082 378.041C679.082 389.105 670.117 398.083 659.041 398.083C647.978 398.083 639 389.105 639 378.041C639 366.966 647.978 358 659.041 358Z" fill="#F46F16"/>
<path d="M760.043 209C771.111 209 780.086 217.975 780.086 229.043C780.086 240.111 771.111 249.086 760.043 249.086C748.975 249.086 740 240.111 740 229.043C740 217.975 748.975 209 760.043 209Z" fill="#F46F16"/>
<path d="M895.043 358C906.107 358 915.074 366.967 915.074 378.043C915.074 389.107 906.107 398.074 895.043 398.074C883.967 398.074 875 389.107 875 378.043C875 366.967 883.967 358 895.043 358Z" fill="#F46F16"/>
</g>
<defs>
<clipPath id="clip0_416_567">
<rect width="1185" height="549" fill="white"/>
</clipPath>
</defs>
</svg>
