<svg width="1185" height="347" viewBox="0 0 1185 347" fill="none" xmlns="http://www.w3.org/2000/svg">
<path d="M1170.49 39.9303V81.5968C1170.49 221.408 1056.2 335.712 916.376 335.712H265.616C125.794 335.712 11.4941 221.408 11.4941 81.5968V74.6192C11.4941 41.4821 38.3571 14.6192 71.4941 14.6192H1145.18C1159.16 14.6192 1170.49 25.9513 1170.49 39.9303Z" fill="black" stroke="black" stroke-width="10"/>
<path d="M1119.86 83.5952C1119.86 74.5693 1112.54 67.2523 1103.52 67.2523H78.4797C69.4537 67.2523 62.1367 74.5693 62.1367 83.5952C62.1367 195.469 153.749 287.079 265.619 287.079H916.376C1028.25 287.079 1119.86 195.469 1119.86 83.5952Z" fill="#F9AA3B"/>
</svg>
