<svg width="90" height="90" viewBox="0 0 90 90" fill="none" xmlns="http://www.w3.org/2000/svg">
<g clip-path="url(#clip0_368_606)">
<path d="M14.999 80C14.999 85.523 19.476 90 25 90C30.524 90 34.999 85.523 34.999 80C34.999 74.477 30.524 70 25 70C19.476 70 14.999 74.477 14.999 80ZM64.999 80C64.999 85.523 69.476 90 75 90C80.524 90 84.999 85.523 84.999 80C84.999 74.477 80.524 70 75 70C69.476 70 64.999 74.477 64.999 80ZM32.735 56.362L88.077 40.55C89.135 40.247 90 39.1 90 38V10.5H19.5V2C19.5 0.9 18.601 0 17.5 0H2C0.899 0 0 0.9 0 2V10H9.718L19.557 55.284L20.5 60V67.5C20.5 68.6 21.399 69.5 22.5 69.5H25H75H88C89.101 69.5 90 68.6 90 67.5V60H33.761C28.013 60 27.896 57.747 32.735 56.362Z" fill="black"/>
</g>
<defs>
<clipPath id="clip0_368_606">
<rect width="90" height="90" fill="white"/>
</clipPath>
</defs>
</svg>
